# xmcd
#
# Track frame offsets:
#	150
#	47369
#	61666
#	117672
#	159218
#	216605
#
# Disc length: 3122 seconds
#
# Revision: 0
# Processed by: cddbd v1.5.2PL0 Copyright (c) Steve Scherf et al.
# Submitted via: EZCDAudioConverter 4.0.4.1
#
DISCID=4d0c3006
DTITLE=Sıdıke Qarlıova - Mıstoye Tofan/Salo Ü Keje
DYEAR=2007
DGENRE=Dengbej
TTITLE0=Mistoye Tofan
TTITLE1=Evdilcebar Çawiş
TTITLE2=Salo ü Keje
TTITLE3=Bışare Çeto
TTITLE4=Resüle Zava
TTITLE5=Werin Tiri
EXTD=
EXTT0=
EXTT1=
EXTT2=
EXTT3=
EXTT4=
EXTT5=
PLAYORDER=
